<svg xmlns="http://www.w3.org/2000/svg" xmlns:xlink="http://www.w3.org/1999/xlink" xmlns:v="http://vecta.io" width="113" height="53" viewBox="0 0 113 53" v:json="{&quot;_titleBlocks_datadata&quot;:&quot;&quot;,&quot;settings&quot;:{&quot;locA&quot;:&quot;1.25 in&quot;,&quot;locB&quot;:&quot;0.75 in&quot;,&quot;locC&quot;:&quot;1.25 in&quot;,&quot;locD&quot;:&quot;0.75 in&quot;,&quot;locSep&quot;:&quot;.&quot;,&quot;locPage&quot;:&quot;/&quot;},&quot;_titleBlocks_dataCompany&quot;:&quot;&quot;,&quot;_titleBlocks_dataProject&quot;:&quot;&quot;,&quot;_titleBlocks_dataClient&quot;:&quot;&quot;,&quot;_titleBlocks_dataDrawingNo&quot;:&quot;&quot;}">
    <style>
        <![CDATA[svg{stroke:#000;stroke-linecap:round;stroke-linejoin:round;fill:#fff;fill-rule:evenodd;font-family:Roboto;font-size:14px;text-anchor:middle}svg text{stroke:none}]]>
    </style>
    <defs>
        <style>@import url("https://fonts.googleapis.com/css?family=Roboto:400,400i,700,700i");</style>
    </defs>
    <g transform="translate(0.5 0.5)" id="_Q.kcpw2h4z2om" v:json="{&quot;user&quot;:{&quot;group&quot;:1,&quot;priority&quot;:20,&quot;comp&quot;:3,&quot;cat&quot;:-3,&quot;pinstring&quot;:&quot;6,1||1,2||6,3||1,4||6,5||1,6&quot;,&quot;pinset&quot;:1,&quot;loctype&quot;:1},&quot;menu&quot;:{&quot;vertical&quot;:true,&quot;hidepins&quot;:false,&quot;chk1&quot;:2}}">
        <g >
            <g class="Pins.lay" transform="translate(5.002 0)" id="_P0.kcpw2h502ot" v:layer_name="Pins">
                <rect fill="none" height="10" stroke="none" width="15" x="0" y="0"/>
                <g>
                    <rect x="0" y="0" width="15" height="10" fill="none" stroke="none"/>
                    <text font-size="7" fill="#000000" fill-opacity="1" text-anchor="end" stroke="none">
                        <tspan x="13" y="9">1</tspan>
                    </text>
                </g>
            </g>
            <g class="Pins.lay" transform="translate(5.002 40)" id="_P1.kcpw2h502ou" v:layer_name="Pins">
                <rect fill="none" height="10" stroke="none" width="15" x="0" y="0"/>
                <g>
                    <rect x="0" y="0" width="15" height="10" fill="none" stroke="none"/>
                    <text font-size="7" fill="#000000" fill-opacity="1" text-anchor="end" stroke="none">
                        <tspan x="13" y="6.81">2</tspan>
                    </text>
                </g>
            </g>
            <g class="Pins.lay" transform="translate(25.001 0)" id="_P2.kcpw2h512ov" v:layer_name="Pins">
                <rect fill="none" height="10" stroke="none" width="15" x="0" y="0"/>
                <g>
                    <rect x="0" y="0" width="15" height="10" fill="none" stroke="none"/>
                    <text font-size="7" fill="#000000" fill-opacity="1" text-anchor="end" stroke="none">
                        <tspan x="13" y="9">3</tspan>
                    </text>
                </g>
            </g>
            <g class="Pins.lay" transform="translate(25.001 40)" id="_P3.kcpw2h512ow" v:layer_name="Pins">
                <rect fill="none" height="10" stroke="none" width="15" x="0" y="0"/>
                <g>
                    <rect x="0" y="0" width="15" height="10" fill="none" stroke="none"/>
                    <text font-size="7" fill="#000000" fill-opacity="1" text-anchor="end" stroke="none">
                        <tspan x="13" y="6.81">4</tspan>
                    </text>
                </g>
            </g>
            <g class="Pins.lay" transform="translate(45 0)" id="_P4.kcpw2h522ox" v:layer_name="Pins">
                <rect fill="none" height="10" stroke="none" width="15" x="0" y="0"/>
                <g>
                    <rect x="0" y="0" width="15" height="10" fill="none" stroke="none"/>
                    <text font-size="7" fill="#000000" fill-opacity="1" text-anchor="end" stroke="none">
                        <tspan x="13" y="9">5</tspan>
                    </text>
                </g>
            </g>
            <g class="Pins.lay" transform="translate(45 40)" id="_P5.kcpw2h522oy" v:layer_name="Pins">
                <rect fill="none" height="10" stroke="none" width="15" x="0" y="0"/>
                <g>
                    <rect x="0" y="0" width="15" height="10" fill="none" stroke="none"/>
                    <text font-size="7" fill="#000000" fill-opacity="1" text-anchor="end" stroke="none">
                        <tspan x="13" y="6.81">6</tspan>
                    </text>
                </g>
            </g>
            <g stroke-width="0.5" transform="translate(8.375 0)">
                <g >
                    <g transform="translate(11.625 0)">
                        <path d="M 1e-13 1e-13 L 0 15" fill="none" stroke-width="0.5"/>
                    </g>
                    <g transform="translate(6.625 15)">
                        <path d="M 5 35 L 5 20 L 1e-13 1e-13" fill="none" stroke-width="0.5"/>
                    </g>
                    <g transform="translate(31.625 0)">
                        <path d="M 1e-13 1e-13 L 0 15" fill="none" stroke-width="0.5"/>
                    </g>
                    <g transform="translate(26.625 15)">
                        <path d="M 5 35 L 5 20 L 1e-13 1e-13" fill="none" stroke-width="0.5"/>
                    </g>
                    <g transform="translate(51.625 0)">
                        <path d="M 1e-13 1e-13 L 0 15" fill="none" stroke-width="0.5"/>
                    </g>
                    <g transform="translate(46.625 15)">
                        <path d="M 5 35 L 5 20 L 1e-13 1e-13" fill="none" stroke-width="0.5"/>
                    </g>
                    <g transform="translate(9.125 25)">
                        <path d="M 40 0 L 1e-13 1e-13" fill="none" stroke-dasharray="1.5 2" stroke-width="0.5"/>
                    </g>
                    <g stroke-width="0.5" transform="translate(0 22)">
                        <g >
                            <g transform="translate(1.0939 0.1069) rotate(30 3.0589 3.0074)">
                                <path d="M 6.1178 0 L 4.0786 2.0049 L 2.0392 0 L 0 2.0049 L 2.0392 4.0099 L 0 6.0147" fill="none" stroke-linecap="round" stroke-linejoin="round" stroke-width="0.5"/>
                            </g>
                            <g transform="translate(21.0939 0.1069) rotate(30 3.0589 3.0074)">
                                <path d="M 6.1178 0 L 4.0786 2.0049 L 2.0392 0 L 0 2.0049 L 2.0392 4.0099 L 0 6.0147" fill="none" stroke-linecap="round" stroke-linejoin="round" stroke-width="0.5"/>
                            </g>
                            <g transform="translate(41.0939 0.1069) rotate(30 3.0589 3.0074)">
                                <path d="M 6.1178 0 L 4.0786 2.0049 L 2.0392 0 L 0 2.0049 L 2.0392 4.0099 L 0 6.0147" fill="none" stroke-linecap="round" stroke-linejoin="round" stroke-width="0.5"/>
                            </g>
                        </g>
                    </g>
                    <g stroke-width="0.5" transform="translate(1.1249 27.4267)">
                        <g >
                            <g transform="translate(0.9507 -0.4855) rotate(257 1.5129 2.5284)">
                                <path d="M 3.0258 5.0568 L 1.5131 0 L 0 5.0568 Z" fill="#000000" fill-opacity="0.99" stroke-linecap="round" stroke-linejoin="round" stroke-opacity="1" stroke-width="0.5"/>
                            </g>
                            <g transform="translate(4.8883 1.0114) rotate(167 1.9003 0)">
                                <path d="M 1e-13 1e-13 L 3.8007 0" fill="none" stroke-linecap="round" stroke-linejoin="round" stroke-width="0.5"/>
                            </g>
                            <g transform="translate(20.9509 -0.4855) rotate(257 1.5129 2.5284)">
                                <path d="M 3.0258 5.0568 L 1.5131 0 L 0 5.0568 Z" fill="#000000" fill-opacity="0.99" stroke-linecap="round" stroke-linejoin="round" stroke-opacity="1" stroke-width="0.5"/>
                            </g>
                            <g transform="translate(24.8883 1.0114) rotate(167 1.9003 0)">
                                <path d="M 1e-13 1e-13 L 3.8007 0" fill="none" stroke-linecap="round" stroke-linejoin="round" stroke-width="0.5"/>
                            </g>
                            <g transform="translate(40.9509 -0.4855) rotate(257 1.5129 2.5284)">
                                <path d="M 3.0258 5.0568 L 1.5131 0 L 0 5.0568 Z" fill="#000000" fill-opacity="0.99" stroke-linecap="round" stroke-linejoin="round" stroke-opacity="1" stroke-width="0.5"/>
                            </g>
                            <g transform="translate(44.8883 1.0114) rotate(167 1.9003 0)">
                                <path d="M 1e-13 1e-13 L 3.8007 0" fill="none" stroke-linecap="round" stroke-linejoin="round" stroke-width="0.5"/>
                            </g>
                        </g>
                    </g>
                </g>
            </g>
            <g class="Desc.lay" transform="translate(60.085 30)" id="_Desc.kcpw2h552pi" v:layer_name="Desc">
                <rect fill="none" height="20" stroke="none" width="50" x="0" y="0"/>
                <g>
                    <rect x="0" y="0" width="50" height="20" fill="none" stroke="none"/>
                    <text font-size="8" fill="#000000" fill-opacity="1" stroke="none">
                        <tspan x="25" y="10">Circuit </tspan>
                        <tspan x="25" y="19.6">Breaker 3P</tspan>
                    </text>
                </g>
            </g>
        </g>
        <g transform="translate(60.085 20)">
            <rect x="0" y="0" width="50" height="10" fill="none" stroke="none"/>
            <text font-size="8" fill="#000000" fill-opacity="1" stroke="none">
                <tspan x="25" y="6.64">Q8</tspan>
            </text>
        </g>
    </g>
</svg>