<svg xmlns="http://www.w3.org/2000/svg" xmlns:xlink="http://www.w3.org/1999/xlink" xmlns:v="http://vecta.io" width="133" height="52" viewBox="0 0 133 52" v:json="{&quot;_titleBlocks_datadata&quot;:&quot;&quot;,&quot;settings&quot;:{&quot;locA&quot;:&quot;1.25 in&quot;,&quot;locB&quot;:&quot;0.75 in&quot;,&quot;locC&quot;:&quot;1.25 in&quot;,&quot;locD&quot;:&quot;0.75 in&quot;,&quot;locSep&quot;:&quot;.&quot;,&quot;locPage&quot;:&quot;/&quot;},&quot;_titleBlocks_dataCompany&quot;:&quot;&quot;,&quot;_titleBlocks_dataProject&quot;:&quot;&quot;,&quot;_titleBlocks_dataClient&quot;:&quot;&quot;,&quot;_titleBlocks_dataDrawingNo&quot;:&quot;&quot;}">
    <style>
        <![CDATA[svg{stroke:#000;stroke-linecap:round;stroke-linejoin:round;fill:#fff;fill-rule:evenodd;font-family:Roboto;font-size:14px;text-anchor:middle}svg text{stroke:none}]]>
    </style>
    <defs>
        <style>@import url("https://fonts.googleapis.com/css?family=Roboto:400,400i,700,700i");</style>
    </defs>
    <g transform="translate(0.5 0.5)" id="_F.kcpw2p0l2rv" v:json="{&quot;user&quot;:{&quot;group&quot;:1,&quot;priority&quot;:10,&quot;comp&quot;:63,&quot;cat&quot;:-26,&quot;pinstring&quot;:&quot;6,1||1,2||6,3||1,4||6,5||1,6&quot;,&quot;pinset&quot;:1,&quot;loctype&quot;:2},&quot;menu&quot;:{&quot;vertical&quot;:true,&quot;hidepins&quot;:false}}">
        <g >
            <g stroke-width="0.5" transform="translate(10 0)">
                <g >
                    <g transform="translate(0 25)">
                        <path d="M 46 0 L 1e-13 1e-13" fill="none" stroke-dasharray="1.5 2" stroke-linecap="round" stroke-linejoin="round" stroke-width="0.5"/>
                    </g>
                    <g transform="translate(5 20) rotate(345 2.5 5)">
                        <path d="M 0 0 L 5 0 L 5 10 L 0 10 Z" stroke-width="0.5"/>
                    </g>
                    <g transform="translate(10 0)">
                        <path d="M 1e-13 1e-13 L 0 15" fill="none" stroke-width="0.5"/>
                    </g>
                    <g transform="translate(5 15)">
                        <path d="M 1e-13 1e-13 L 5 20 L 5 35" fill="none" stroke-width="0.5"/>
                    </g>
                    <g transform="translate(0 22.5)">
                        <path d="M 1e-13 1e-13 L 0 5" fill="none" stroke-linecap="round" stroke-linejoin="round" stroke-width="0.5"/>
                    </g>
                    <g transform="translate(25 20) rotate(345 2.5 5)">
                        <path d="M 0 0 L 5 0 L 5 10 L 0 10 Z" stroke-width="0.5"/>
                    </g>
                    <g transform="translate(30 0)">
                        <path d="M 1e-13 1e-13 L 0 15" fill="none" stroke-width="0.5"/>
                    </g>
                    <g transform="translate(25 15)">
                        <path d="M 1e-13 1e-13 L 5 20 L 5 35" fill="none" stroke-width="0.5"/>
                    </g>
                    <g transform="translate(45 20) rotate(345 2.5 5)">
                        <path d="M 0 0 L 5 0 L 5 10 L 0 10 Z" stroke-width="0.5"/>
                    </g>
                    <g transform="translate(50 0)">
                        <path d="M 1e-13 1e-13 L 0 15" fill="none" stroke-width="0.5"/>
                    </g>
                    <g transform="translate(45 15)">
                        <path d="M 1e-13 1e-13 L 5 20 L 5 35" fill="none" stroke-width="0.5"/>
                    </g>
                </g>
            </g>
            <g class="Pins.lay" transform="translate(5.002 0)" id="_P0.kcpw2p0o2se" v:layer_name="Pins">
                <rect fill="none" height="10" stroke="none" width="15" x="0" y="0"/>
                <g>
                    <rect x="0" y="0" width="15" height="10" fill="none" stroke="none"/>
                    <text fill="#000000" fill-opacity="1" font-size="7" text-anchor="end" stroke="none">
                        <tspan x="13" y="9">1</tspan>
                    </text>
                </g>
            </g>
            <g class="Pins.lay" transform="translate(5.002 40)" id="_P1.kcpw2p0p2sf" v:layer_name="Pins">
                <rect fill="none" height="10" stroke="none" width="15" x="0" y="0"/>
                <g>
                    <rect x="0" y="0" width="15" height="10" fill="none" stroke="none"/>
                    <text fill="#000000" fill-opacity="1" font-size="7" text-anchor="end" stroke="none">
                        <tspan x="13" y="6.81">2</tspan>
                    </text>
                </g>
            </g>
            <g class="Pins.lay" transform="translate(25.001 0)" id="_P2.kcpw2p0p2sg" v:layer_name="Pins">
                <rect fill="none" height="10" stroke="none" width="15" x="0" y="0"/>
                <g>
                    <rect x="0" y="0" width="15" height="10" fill="none" stroke="none"/>
                    <text fill="#000000" fill-opacity="1" font-size="7" text-anchor="end" stroke="none">
                        <tspan x="13" y="9">3</tspan>
                    </text>
                </g>
            </g>
            <g class="Pins.lay" transform="translate(25.001 40)" id="_P3.kcpw2p0p2sh" v:layer_name="Pins">
                <rect fill="none" height="10" stroke="none" width="15" x="0" y="0"/>
                <g>
                    <rect x="0" y="0" width="15" height="10" fill="none" stroke="none"/>
                    <text fill="#000000" fill-opacity="1" font-size="7" text-anchor="end" stroke="none">
                        <tspan x="13" y="6.81">4</tspan>
                    </text>
                </g>
            </g>
            <g class="Pins.lay" transform="translate(45 0)" id="_P4.kcpw2p0p2si" v:layer_name="Pins">
                <rect fill="none" height="10" stroke="none" width="15" x="0" y="0"/>
                <g>
                    <rect x="0" y="0" width="15" height="10" fill="none" stroke="none"/>
                    <text fill="#000000" fill-opacity="1" font-size="7" text-anchor="end" stroke="none">
                        <tspan x="13" y="9">5</tspan>
                    </text>
                </g>
            </g>
            <g class="Pins.lay" transform="translate(45 40)" id="_P5.kcpw2p0q2sj" v:layer_name="Pins">
                <rect fill="none" height="10" stroke="none" width="15" x="0" y="0"/>
                <g>
                    <rect x="0" y="0" width="15" height="10" fill="none" stroke="none"/>
                    <text fill="#000000" fill-opacity="1" font-size="7" text-anchor="end" stroke="none">
                        <tspan x="13" y="6.81">6</tspan>
                    </text>
                </g>
            </g>
            <g class="Desc.lay" transform="translate(60.095 30)" id="_Desc.kcpw2p0q2sk" v:layer_name="Desc">
                <rect fill="none" height="20" stroke="none" width="70" x="0" y="0"/>
                <g>
                    <rect x="0" y="0" width="70" height="20" fill="none" stroke="none"/>
                    <text fill="#000000" fill-opacity="1" font-size="8" stroke="none">
                        <tspan x="35" y="10">Fuse Switch 3P</tspan>
                    </text>
                </g>
            </g>
        </g>
        <g transform="translate(60.095 20)">
            <rect x="0" y="0" width="70" height="10" fill="none" stroke="none"/>
            <text font-size="8" fill="#000000" fill-opacity="1" stroke="none">
                <tspan x="35" y="6.64">F5</tspan>
            </text>
        </g>
    </g>
</svg>