<svg xmlns="http://www.w3.org/2000/svg" xmlns:xlink="http://www.w3.org/1999/xlink" xmlns:v="http://vecta.io" width="60" height="83" viewBox="0 0 60 83" v:json="{&quot;_titleBlocks_datadata&quot;:&quot;&quot;,&quot;settings&quot;:{&quot;locA&quot;:&quot;1.25 in&quot;,&quot;locB&quot;:&quot;0.75 in&quot;,&quot;locC&quot;:&quot;1.25 in&quot;,&quot;locD&quot;:&quot;0.75 in&quot;,&quot;locSep&quot;:&quot;.&quot;,&quot;locPage&quot;:&quot;/&quot;},&quot;_titleBlocks_dataCompany&quot;:&quot;&quot;,&quot;_titleBlocks_dataProject&quot;:&quot;&quot;,&quot;_titleBlocks_dataClient&quot;:&quot;&quot;,&quot;_titleBlocks_dataDrawingNo&quot;:&quot;&quot;}">
    <style>
        <![CDATA[svg{stroke:#000;stroke-linecap:round;stroke-linejoin:round;fill:#fff;fill-rule:evenodd;font-family:Roboto;font-size:14px;text-anchor:middle}svg text{stroke:none}]]>
    </style>
    <defs>
        <style>@import url("https://fonts.googleapis.com/css?family=Roboto:400,400i,700,700i");</style>
    </defs>
    <g stroke-width="0.5" transform="translate(8.5 0.502)" v:json="{&quot;user&quot;:{&quot;group&quot;:1,&quot;priority&quot;:10,&quot;comp&quot;:92,&quot;cat&quot;:-6,&quot;pinstring&quot;:&quot;6,1||6,2||6,PE&quot;,&quot;pinset&quot;:1,&quot;loctype&quot;:0},&quot;menu&quot;:{&quot;vertical&quot;:true,&quot;hidepins&quot;:false,&quot;chk1&quot;:0}}" id="_M.kcpwi01b37a">
        <g >
            <g transform="translate(3 14)">
                <ellipse cx="16" cy="16" fill="#ffffff" fill-opacity="1" rx="16" ry="16" stroke-width="0.5"/>
            </g>
            <g transform="translate(10 0)">
                <path d="M 1e-13 1e-13 L 0 16.75" fill="none" stroke-width="0.5"/>
            </g>
            <g transform="translate(30 0)">
                <path d="M 1e-13 1e-13 L 0 18.25" fill="none" stroke-width="0.5"/>
            </g>
            <g transform="translate(35 0)" display="none">
                <path d="M 0 30 L 4.2857 30 L 15 20.8333 L 15 0" fill="none" stroke-width="0.5"/>
            </g>
            <g stroke-width="0.5" transform="translate(25 46.998)" display="none">
                <g >
                    <g transform="translate(2 13)">
                        <path d="M 1e-13 1e-13 L 10 0" fill="none" stroke-width="0.5"/>
                    </g>
                    <g transform="translate(4 16)">
                        <path d="M 1e-13 1e-13 L 6 0" fill="none" stroke-width="0.5"/>
                    </g>
                    <g transform="translate(6 19)">
                        <path d="M 1e-13 1e-13 L 2 0" fill="none" stroke-width="0.5"/>
                    </g>
                    <g transform="translate(2 1.5)">
                        <path d="M 5 11.5 L 5 5.5 L 1e-13 1e-13" fill="none" stroke-width="0.5"/>
                    </g>
                    <g>
                        <path d="M 4 0 L 0 3" fill="none" stroke-width="0.5"/>
                    </g>
                </g>
            </g>
            <g stroke-width="0.5" transform="translate(12.25 21.8633)">
                <g >
                    <g transform="translate(4.4188 0)">
                        <path d="M 0 0 L 1.0546 0 L 3.079 5.133 L 5.1033 0 L 6.1623 0 L 6.1623 6.2909 L 5.3457 6.2909 L 5.3457 3.8411 L 5.4223 1.1968 L 3.3894 6.2909 L 2.7643 6.2909 L 0.7358 1.2098 L 0.8166 3.8411 L 0.8166 6.2909 L 0 6.2909 L 0 0 Z" fill="#000000" fill-opacity="1" stroke="none" stroke-linecap="round" stroke-linejoin="round" stroke-width="0.5"/>
                    </g>
                    <g stroke-width="0.5" transform="translate(0 9.6788)">
                        <g >
                            <g transform="translate(5.8064 2.0409)">
                                <path d="M 9.1936 0.8392 C 4.3549 8.2132 4.8387 -5.0599 0 2.314" fill="none" fill-opacity="1" stroke-linecap="round" stroke-linejoin="round" stroke-width="0.5"/>
                            </g>
                            <g>
                                <path d="M 2.3773 0 L 2.3773 6.3212 L 1.5863 6.3212 L 1.5863 0.9937 L 0 1.5857 L 0 0.8598 L 2.254 0 L 2.3773 0 Z" fill="#000000" fill-opacity="1" stroke="none" stroke-linecap="round" stroke-linejoin="round" stroke-width="0.5"/>
                            </g>
                        </g>
                    </g>
                </g>
            </g>
            <g class="Desc.lay" transform="translate(-7.5 60)" id="_Desc.kcpwi01e37t" v:layer_name="Desc">
                <rect fill="none" height="20" stroke="none" width="50" x="0" y="0"/>
                <g>
                    <rect x="0" y="0" width="50" height="20" fill="none" stroke="none"/>
                    <text font-size="8" fill="#000000" fill-opacity="1" stroke="none">
                        <tspan x="25" y="10">AC Motor 2P</tspan>
                    </text>
                </g>
            </g>
            <g class="Pins.lay" transform="translate(-5 -0.002)" id="_P0.kcpwi01f37u" v:layer_name="Pins">
                <rect fill="none" height="10" stroke="none" width="15" x="0" y="0"/>
                <g>
                    <rect x="0" y="0" width="15" height="10" fill="none" stroke="none"/>
                    <text font-size="7px" fill="#000000" fill-opacity="1" text-anchor="end" stroke="none">
                        <tspan x="13" y="9">1</tspan>
                    </text>
                </g>
            </g>
            <g class="Pins.lay" transform="translate(15 -0.002)" id="_P1.kcpwi01f37v" v:layer_name="Pins">
                <rect fill="none" height="10" stroke="none" width="15" x="0" y="0"/>
                <g>
                    <rect x="0" y="0" width="15" height="10" fill="none" stroke="none"/>
                    <text font-size="7px" fill="#000000" fill-opacity="1" text-anchor="end" stroke="none">
                        <tspan x="13" y="9">2</tspan>
                    </text>
                </g>
            </g>
            <g class="Pins.lay" transform="translate(35 0)" display="none" id="_P2.kcpwi01f37w" v:layer_name="Pins">
                <rect fill="none" height="10" stroke="none" width="15" x="0" y="0"/>
                <g>
                    <rect x="0" y="0" width="15" height="10" fill="none" stroke="none"/>
                    <text font-size="7px" fill="#000000" fill-opacity="1" text-anchor="end" stroke="none">
                        <tspan x="13" y="9">PE</tspan>
                    </text>
                </g>
            </g>
        </g>
        <g transform="translate(-7.5 49.999)">
            <rect x="0" y="0" width="50" height="10" fill="none" stroke="none"/>
            <text font-size="8" fill="#000000" fill-opacity="1" stroke="none">
                <tspan x="25" y="10">M10</tspan>
            </text>
        </g>
    </g>
</svg>