<svg xmlns="http://www.w3.org/2000/svg" xmlns:xlink="http://www.w3.org/1999/xlink" xmlns:v="http://vecta.io" width="102" height="63" viewBox="0 0 102 63" v:json="{&quot;_titleBlocks_datadata&quot;:&quot;&quot;,&quot;settings&quot;:{&quot;locA&quot;:&quot;1.25 in&quot;,&quot;locB&quot;:&quot;0.75 in&quot;,&quot;locC&quot;:&quot;1.25 in&quot;,&quot;locD&quot;:&quot;0.75 in&quot;,&quot;locSep&quot;:&quot;.&quot;,&quot;locPage&quot;:&quot;/&quot;},&quot;_titleBlocks_dataCompany&quot;:&quot;&quot;,&quot;_titleBlocks_dataProject&quot;:&quot;&quot;,&quot;_titleBlocks_dataClient&quot;:&quot;&quot;,&quot;_titleBlocks_dataDrawingNo&quot;:&quot;&quot;}">
    <style>
        <![CDATA[svg{stroke:#000;stroke-linecap:round;stroke-linejoin:round;fill:#fff;fill-rule:evenodd;font-family:Roboto;font-size:14px;text-anchor:middle}svg text{stroke:none}]]>
    </style>
    <defs>
        <style>@import url("https://fonts.googleapis.com/css?family=Roboto:400,400i,700,700i");</style>
    </defs>
    <g stroke-width="0.5" transform="translate(5.496 0.502)" v:json="{&quot;user&quot;:{&quot;group&quot;:1,&quot;priority&quot;:10,&quot;comp&quot;:6,&quot;cat&quot;:-6,&quot;pinstring&quot;:&quot;6,U1||6,V1||6,W1||1,U2||1,V2||1,W2||6,PE||1,PE&quot;,&quot;pinset&quot;:1,&quot;loctype&quot;:0},&quot;menu&quot;:{&quot;vertical&quot;:true,&quot;hidepins&quot;:false,&quot;chk1&quot;:0}}" id="_M.kcpwhw67359">
        <g >
            <g transform="translate(13 14.0714)">
                <ellipse cx="16" cy="16" fill="#ffffff" fill-opacity="1" rx="16" ry="16" stroke-width="0.5"/>
            </g>
            <g stroke-width="0.5" transform="translate(22.504 21.8356)">
                <g >
                    <g transform="translate(3.246 0)">
                        <path d="M 0 0 L 1.1352 0 L 3.3143 5.3391 L 5.4932 0 L 6.633 0 L 6.633 6.5435 L 5.7541 6.5435 L 5.7541 3.9953 L 5.8365 1.2449 L 3.6484 6.5435 L 2.9754 6.5435 L 0.7919 1.2584 L 0.8789 3.9953 L 0.8789 6.5435 L 0 6.5435 L 0 0 Z" fill="#000000" stroke="none" stroke-linecap="round" stroke-linejoin="round" stroke-width="0.5"/>
                    </g>
                    <g stroke-width="0.5" transform="translate(0 9.9491)">
                        <g >
                            <g transform="translate(4.6875 0.9887)">
                                <path d="M 9.375 1.9928 C 4.6875 8.8958 4.6875 -4.9103 0 1.9927" fill="none" stroke-linecap="round" stroke-linejoin="round" stroke-width="0.5"/>
                            </g>
                            <g transform="translate(-0.9375 0)">
                                <path d="M 1.2195 3.2722 L 1.2195 2.6615 L 1.7921 2.6615 Q 2.3318 2.6534 2.6408 2.3824 Q 2.9498 2.1113 2.9498 1.6503 Q 2.9498 0.6148 1.8993 0.6148 Q 1.4048 0.6148 1.1103 0.8919 Q 0.8157 1.1689 0.8157 1.626 L 0.0535 1.626 Q 0.0535 0.9262 0.5747 0.4631 Q 1.0958 0 1.8993 0 Q 2.748 0 3.23 0.4409 Q 3.712 0.8818 3.712 1.6664 Q 3.712 2.0507 3.4586 2.4106 Q 3.2052 2.7707 2.7685 2.9486 Q 3.263 3.1023 3.5328 3.4582 Q 3.8027 3.8142 3.8027 4.3278 Q 3.8027 5.1207 3.2753 5.5858 Q 2.748 6.0509 1.9034 6.0509 Q 1.0588 6.0509 0.5294 5.602 Q 0 5.153 0 4.4169 L 0.7663 4.4169 Q 0.7663 4.882 1.0753 5.1611 Q 1.3843 5.4402 1.9034 5.4402 Q 2.4554 5.4402 2.748 5.157 Q 3.0405 4.8739 3.0405 4.344 Q 3.0405 3.8304 2.7191 3.5554 Q 2.3978 3.2803 1.7921 3.2722 L 1.2195 3.2722 Z" fill="#000000" stroke="none" stroke-linecap="round" stroke-linejoin="round" stroke-width="0.5"/>
                            </g>
                        </g>
                    </g>
                </g>
            </g>
            <g transform="translate(45 0)" display="none">
                <path d="M 0 30.5 L 5 30.5 L 25 12.5 L 25 0" fill="none" stroke-width="0.5"/>
            </g>
            <g stroke-width="0.5" transform="translate(10 43)">
                <g >
                    <g transform="translate(13.125 10.125) rotate(270 6.875 0)">
                        <path d="M 1e-13 1e-13 L 13.75 0" fill="none" stroke-width="0.5"/>
                    </g>
                    <g transform="translate(31.584 -2.5855)">
                        <path d="M 1e-13 1e-13 L 8.4153 8.4153 L 8.4153 19.5855" fill="none" stroke-width="0.5"/>
                    </g>
                    <g transform="translate(0 -1.5053)">
                        <path d="M 7.4947 0 L 0 7.4947 L 0 18.5053" fill="none" stroke-width="0.5"/>
                    </g>
                </g>
            </g>
            <g stroke-width="0.5" transform="translate(9 0)">
                <g >
                    <g transform="translate(13.952 6.9515) rotate(270 7.0486 0)">
                        <path d="M 14.0972 0 L 1e-13 1e-13" fill="none" stroke-width="0.5"/>
                    </g>
                    <g transform="translate(32.304 0)">
                        <path d="M 8.6996 0 L 8.6996 11.4894 L 0 20.189" fill="none" stroke-width="0.5"/>
                    </g>
                    <g transform="translate(1 0)">
                        <path d="M 1e-13 1e-13 L 0 11.1703 L 7.7982 18.9685" fill="none" stroke-width="0.5"/>
                    </g>
                </g>
            </g>
            <g display="none" stroke-width="0.5" transform="translate(49 26)">
                <g >
                    <g transform="translate(5.712 4.2857) rotate(270 4.2857 0)">
                        <path d="M 1e-13 1e-13 L 8.5714 0" fill="none" stroke="#000000" stroke-opacity="1" stroke-width="0.5"/>
                    </g>
                    <g transform="translate(10.432 4.2857) rotate(270 2.5715 0)">
                        <path d="M 1e-13 1e-13 L 5.1429 0" fill="none" stroke="#000000" stroke-opacity="1" stroke-width="0.5"/>
                    </g>
                    <g transform="translate(15.142 4.2839) rotate(270 0.858 0)">
                        <path d="M 1e-13 1e-13 L 1.716 0" fill="none" stroke="#000000" stroke-opacity="1" stroke-width="0.5"/>
                    </g>
                    <g transform="translate(0 4.2857)">
                        <path d="M 10 0 L 1e-13 1e-13" fill="none" stroke="#000000" stroke-opacity="1" stroke-width="0.5"/>
                    </g>
                    <g transform="translate(0 2.5714)">
                        <path d="M 1e-13 1e-13 L 0 3.4286" fill="none" stroke-width="0.5"/>
                    </g>
                </g>
            </g>
            <g stroke-width="0.5" transform="translate(49 13.14)" display="none">
                <g >
                    <g stroke-width="0.5" transform="translate(0 15.4286)">
                        <g >
                            <g transform="translate(5 13.7143)">
                                <path d="M 1e-13 1e-13 L 10 0" fill="none" stroke="#000000" stroke-opacity="1" stroke-width="0.5"/>
                            </g>
                            <g transform="translate(7 16.2857)">
                                <path d="M 1e-13 1e-13 L 6 0" fill="none" stroke="#000000" stroke-opacity="1" stroke-width="0.5"/>
                            </g>
                            <g transform="translate(9 18.8571)">
                                <path d="M 1e-13 1e-13 L 2 0" fill="none" stroke="#000000" stroke-opacity="1" stroke-width="0.5"/>
                            </g>
                            <g transform="translate(0 1.7143)">
                                <path d="M 10 12 L 10 0 L 0 1e-13" fill="none" stroke="#000000" stroke-opacity="1" stroke-width="0.5"/>
                            </g>
                            <g>
                                <path d="M 1e-13 1e-13 L 0 3.4286" fill="none" stroke-width="0.5"/>
                            </g>
                        </g>
                    </g>
                </g>
            </g>
            <g class="Desc.lay" transform="translate(45 30.002)" id="_Desc.kcpwhw6e369" v:layer_name="Desc">
                <rect fill="none" height="20" stroke="none" width="50" x="0" y="0"/>
                <g>
                    <rect x="0" y="0" width="50" height="20" fill="none" stroke="none"/>
                    <text fill="#000000" fill-opacity="1" font-size="8" stroke="none">
                        <tspan x="25" y="10">AC Motor 3P</tspan>
                    </text>
                </g>
            </g>
            <g class="Pins.lay" transform="translate(-4.996 -0.002)" id="_P0.kcpwhw6f36a" v:layer_name="Pins">
                <rect fill="none" height="10" stroke="none" width="15" x="0" y="0"/>
                <g>
                    <rect x="0" y="0" width="15" height="10" fill="none" stroke="none"/>
                    <text fill="#000000" fill-opacity="1" text-anchor="end" font-size="7px" stroke="none">
                        <tspan x="13" y="9">U1</tspan>
                    </text>
                </g>
            </g>
            <g class="Pins.lay" transform="translate(15.004 -0.002)" id="_P1.kcpwhw6f36b" v:layer_name="Pins">
                <rect fill="none" height="10" stroke="none" width="15" x="0" y="0"/>
                <g>
                    <rect x="0" y="0" width="15" height="10" fill="none" stroke="none"/>
                    <text fill="#000000" fill-opacity="1" text-anchor="end" font-size="7px" stroke="none">
                        <tspan x="13" y="9">V1</tspan>
                    </text>
                </g>
            </g>
            <g class="Pins.lay" transform="translate(35.004 -0.002)" id="_P2.kcpwhw6f36c" v:layer_name="Pins">
                <rect fill="none" height="10" stroke="none" width="15" x="0" y="0"/>
                <g>
                    <rect x="0" y="0" width="15" height="10" fill="none" stroke="none"/>
                    <text fill="#000000" fill-opacity="1" text-anchor="end" font-size="7px" stroke="none">
                        <tspan x="13" y="9">W1</tspan>
                    </text>
                </g>
            </g>
            <g class="Pins.lay" transform="translate(-4.996 50.002)" id="_P3.kcpwhw6f36d" v:layer_name="Pins">
                <rect fill="none" height="10" stroke="none" width="15" x="0" y="0"/>
                <g>
                    <rect x="0" y="0" width="15" height="10" fill="none" stroke="none"/>
                    <text fill="#000000" fill-opacity="1" text-anchor="end" font-size="7px" stroke="none">
                        <tspan x="13" y="6.81">U2</tspan>
                    </text>
                </g>
            </g>
            <g class="Pins.lay" transform="translate(15.004 50.002)" id="_P4.kcpwhw6f36e" v:layer_name="Pins">
                <rect fill="none" height="10" stroke="none" width="15" x="0" y="0"/>
                <g>
                    <rect x="0" y="0" width="15" height="10" fill="none" stroke="none"/>
                    <text fill="#000000" fill-opacity="1" text-anchor="end" font-size="7px" stroke="none">
                        <tspan x="13" y="6.81">V2</tspan>
                    </text>
                </g>
            </g>
            <g class="Pins.lay" transform="translate(35.004 50.002)" id="_P5.kcpwhw6f36f" v:layer_name="Pins">
                <rect fill="none" height="10" stroke="none" width="15" x="0" y="0"/>
                <g>
                    <rect x="0" y="0" width="15" height="10" fill="none" stroke="none"/>
                    <text fill="#000000" fill-opacity="1" text-anchor="end" font-size="7px" stroke="none">
                        <tspan x="13" y="6.81">W2</tspan>
                    </text>
                </g>
            </g>
            <g class="Pins.lay" transform="translate(55 0)" display="none" id="_P6.kcpwhw6g36g" v:layer_name="Pins">
                <rect fill="none" height="10" stroke="none" width="15" x="0" y="0"/>
                <g>
                    <rect x="0" y="0" width="15" height="10" fill="none" stroke="none"/>
                    <text fill="#000000" fill-opacity="1" text-anchor="end" font-size="7px" stroke="none">
                        <tspan x="13" y="9">PE</tspan>
                    </text>
                </g>
            </g>
        </g>
        <g transform="translate(45 20.002)">
            <rect x="0" y="0" width="50" height="10" fill="none" stroke="none"/>
            <text font-size="8" fill="#000000" fill-opacity="1" stroke="none">
                <tspan x="25" y="10">M9</tspan>
            </text>
        </g>
    </g>
</svg>